<svg width="10" height="14" viewBox="0 0 10 14" fill="none" xmlns="http://www.w3.org/2000/svg">
<path d="M5 13.3333C4.63333 13.3333 4.31956 13.2029 4.05867 12.942C3.79733 12.6807 3.66667 12.3667 3.66667 12H6.33333C6.33333 12.3667 6.20289 12.6807 5.942 12.942C5.68067 13.2029 5.36667 13.3333 5 13.3333ZM3 11.3333C2.81111 11.3333 2.65289 11.2693 2.52533 11.1413C2.39733 11.0138 2.33333 10.8556 2.33333 10.6667C2.33333 10.4778 2.39733 10.3196 2.52533 10.192C2.65289 10.064 2.81111 10 3 10H7C7.18889 10 7.34733 10.064 7.47533 10.192C7.60289 10.3196 7.66667 10.4778 7.66667 10.6667C7.66667 10.8556 7.60289 11.0138 7.47533 11.1413C7.34733 11.2693 7.18889 11.3333 7 11.3333H3ZM2.5 9.33333C1.73333 8.87778 1.12511 8.26667 0.675333 7.5C0.225111 6.73333 0 5.9 0 5C0 3.61111 0.486222 2.43067 1.45867 1.45867C2.43067 0.486222 3.61111 0 5 0C6.38889 0 7.56933 0.486222 8.54133 1.45867C9.51378 2.43067 10 3.61111 10 5C10 5.9 9.77511 6.73333 9.32533 7.5C8.87511 8.26667 8.26667 8.87778 7.5 9.33333H2.5Z" fill="#C2410C"/>
</svg>
