<svg width="1544" height="1189" viewBox="0 0 1544 1189" fill="none" xmlns="http://www.w3.org/2000/svg">
<path d="M435.977 731.248L1001.61 404.665L1024.23 417.739C1027.32 419.765 1029.9 422.488 1031.75 425.69C1033.6 428.891 1034.67 432.481 1034.89 436.173V853.422C1034.68 857.114 1033.61 860.707 1031.76 863.909C1029.9 867.111 1027.33 869.833 1024.23 871.856L479.905 1186.15C476.604 1187.81 472.961 1188.68 469.266 1188.68C465.571 1188.68 461.928 1187.81 458.627 1186.15L446.632 1179.22C443.539 1177.19 440.965 1174.47 439.114 1171.27C437.264 1168.07 436.189 1164.48 435.977 1160.79V731.248Z" fill="#C2410C"/>
<path opacity="0.2" d="M435.977 731.248L1001.61 404.665L1024.23 417.739C1027.32 419.765 1029.9 422.488 1031.75 425.69C1033.6 428.891 1034.67 432.481 1034.89 436.173V853.422C1034.68 857.114 1033.61 860.707 1031.76 863.909C1029.9 867.111 1027.33 869.833 1024.23 871.856L479.905 1186.15C476.604 1187.81 472.961 1188.68 469.266 1188.68C465.571 1188.68 461.928 1187.81 458.627 1186.15L446.632 1179.22C443.539 1177.19 440.965 1174.47 439.114 1171.27C437.264 1168.07 436.189 1164.48 435.977 1160.79V731.248Z" fill="black"/>
<path d="M998.476 367.994L1000.8 366.752L992.004 361.62C991.261 361.181 990.485 360.798 989.683 360.476L740.759 268.274C737.337 267.158 733.65 267.144 730.22 268.235C726.79 269.326 723.788 271.466 721.639 274.353L443.168 681.012C438.83 688.008 436.355 695.996 435.977 704.218V731.248L444.606 736.249L1001.61 404.666V377.668C1001.51 374.211 1000.42 370.854 998.476 367.994Z" fill="#C2410C"/>
<path opacity="0.1" d="M733.144 276.314C732.047 277.199 731.078 278.233 730.267 279.386L451.796 686.013C449.501 689.61 447.76 693.533 446.632 697.648L437.971 692.648C438.589 690.553 439.343 688.5 440.226 686.503C440.222 686.438 440.222 686.372 440.226 686.307C440.618 685.457 441.011 684.673 441.435 683.856C441.488 683.719 441.553 683.587 441.632 683.463C442.073 682.618 442.564 681.8 443.102 681.012L721.639 274.549C722.052 273.948 722.511 273.38 723.012 272.849C723.502 272.392 723.992 271.901 724.515 271.477L733.144 276.314Z" fill="black"/>
<path opacity="0.35" d="M1000.7 366.686C999.943 366.226 999.144 365.843 998.312 365.542L749.355 273.274C746.598 272.348 743.65 272.142 740.79 272.674C737.93 273.205 735.253 274.458 733.013 276.314L724.515 271.28C726.763 269.439 729.439 268.194 732.296 267.663C735.153 267.132 738.098 267.33 740.857 268.24L989.684 360.509C990.491 360.817 991.268 361.2 992.004 361.652L1000.7 366.686Z" fill="white"/>
<path d="M440.292 686.372C440.651 685.522 441.076 684.705 441.468 683.921C441.239 684.64 440.651 685.457 440.292 686.372Z" fill="#C2410C"/>
<path d="M730.267 279.386L451.796 686.012C447.429 693.012 444.92 701.011 444.508 709.251V736.248L1010.14 409.666V382.669C1009.97 378.98 1008.76 375.416 1006.65 372.386C1004.54 369.356 1001.61 366.984 998.214 365.542L749.388 273.307C745.967 272.175 742.276 272.154 738.842 273.246C735.408 274.338 732.407 276.487 730.267 279.386Z" fill="#C2410C"/>
<path opacity="0.05" d="M1010.24 382.669C1010.13 379.278 1009.08 375.985 1007.2 373.158L446.632 697.649C445.382 701.397 444.667 705.304 444.508 709.252V736.249L1010.14 409.667L1010.24 382.669Z" fill="black"/>
<path d="M986.088 268.012C986.199 266.881 986.014 265.74 985.549 264.703C985.085 263.665 984.358 262.767 983.441 262.096L966.151 252.291C965.101 251.813 963.942 251.622 962.794 251.737C961.646 251.851 960.549 252.268 959.614 252.944L495.496 520.956C492.822 522.702 490.598 525.053 489.002 527.818C487.407 530.583 486.485 533.686 486.311 536.874V1092.51C486.198 1093.65 486.386 1094.8 486.856 1095.84C487.326 1096.88 488.063 1097.79 488.991 1098.46L506.216 1108.26C507.264 1108.74 508.42 1108.94 509.568 1108.83C510.716 1108.72 511.815 1108.31 512.753 1107.64L976.871 839.793C979.579 838.026 981.827 835.64 983.43 832.833C985.033 830.025 985.944 826.876 986.088 823.646V268.012Z" fill="#C2410C"/>
<path opacity="0.95" d="M986.088 268.012C986.199 266.881 986.014 265.74 985.549 264.703C985.085 263.665 984.358 262.767 983.441 262.096L966.151 252.291C965.101 251.813 963.942 251.622 962.794 251.737C961.646 251.851 960.549 252.268 959.614 252.944L495.496 520.956C492.822 522.702 490.598 525.053 489.002 527.818C487.407 530.583 486.485 533.686 486.311 536.874V1092.51C486.198 1093.65 486.386 1094.8 486.856 1095.84C487.326 1096.88 488.063 1097.79 488.991 1098.46L506.216 1108.26C507.264 1108.74 508.42 1108.94 509.568 1108.83C510.716 1108.72 511.815 1108.31 512.753 1107.64L976.871 839.793C979.579 838.026 981.827 835.64 983.43 832.833C985.033 830.025 985.944 826.876 986.088 823.646V268.012Z" fill="white"/>
<path d="M512.949 1107.45L977.067 839.596C979.713 837.828 981.907 835.463 983.473 832.694C985.04 829.924 985.936 826.825 986.088 823.646V268.012C986.088 262.161 981.97 259.808 976.904 262.717L512.949 530.729C510.278 532.476 508.054 534.828 506.459 537.593C504.864 540.358 503.941 543.459 503.765 546.646V1102.28C503.765 1108 507.883 1110.35 512.949 1107.45Z" fill="#C2410C"/>
<path opacity="0.8" d="M512.949 1107.45L977.067 839.596C979.713 837.828 981.907 835.463 983.473 832.694C985.04 829.924 985.936 826.825 986.088 823.646V268.012C986.088 262.161 981.97 259.808 976.904 262.717L512.949 530.729C510.278 532.476 508.054 534.828 506.459 537.593C504.864 540.358 503.941 543.459 503.765 546.646V1102.28C503.765 1108 507.883 1110.35 512.949 1107.45Z" fill="white"/>
<path d="M503.765 1102.12C503.676 1103.16 503.824 1104.2 504.197 1105.18C504.571 1106.15 505.161 1107.03 505.922 1107.74C502.817 1105.97 490.789 1098.98 489.253 1098.13C488.308 1097.48 487.557 1096.59 487.08 1095.55C486.602 1094.51 486.415 1093.35 486.54 1092.21V536.579C486.645 533.388 487.58 530.279 489.253 527.559L506.478 537.364C504.807 540.109 503.873 543.239 503.765 546.45V1102.12Z" fill="#C2410C"/>
<path opacity="0.7" d="M503.765 1102.12C503.676 1103.16 503.824 1104.2 504.197 1105.18C504.571 1106.15 505.161 1107.03 505.922 1107.74C502.817 1105.97 490.789 1098.98 489.253 1098.13C488.308 1097.48 487.557 1096.59 487.08 1095.55C486.602 1094.51 486.415 1093.35 486.54 1092.21V536.579C486.645 533.388 487.58 530.279 489.253 527.559L506.478 537.364C504.807 540.109 503.873 543.239 503.765 546.45V1102.12Z" fill="white"/>
<path opacity="0.05" d="M503.765 1102.12C503.676 1103.16 503.824 1104.2 504.197 1105.18C504.571 1106.15 505.161 1107.03 505.922 1107.74C502.817 1105.97 490.789 1098.98 489.253 1098.13C488.308 1097.48 487.557 1096.59 487.08 1095.55C486.602 1094.51 486.415 1093.35 486.54 1092.21V536.579C486.645 533.388 487.58 530.279 489.253 527.559L506.478 537.364C504.807 540.109 503.873 543.239 503.765 546.45V1102.12Z" fill="black"/>
<path d="M673.07 682.188C671.044 733.895 674.508 844.662 674.508 844.662C674.508 844.662 729.32 861.201 766.547 855.056C803.775 848.911 883.459 792.433 883.459 792.433L870.19 672.579L673.07 682.188Z" fill="#37474F"/>
<path d="M800.278 842.767L809.168 758.277C844.107 737.458 855.449 708.63 855.449 708.63C823.68 750.237 790.538 743.504 790.538 743.504V847.179C793.708 845.872 796.976 844.368 800.278 842.767Z" fill="#263238"/>
<path d="M892.055 526.48C900.946 481.473 904.966 421.694 865.908 410.712C855.71 407.868 829.759 409.862 829.759 409.862L787.563 411.954C764.063 414.928 731.117 419.602 722.489 421.759C699.806 427.348 693.073 464.249 682.908 546.417C676.567 597.797 671.142 637.934 671.142 687.941C712.585 725.103 842.179 710.46 871.66 686.274C872.674 629.566 875.942 608.55 892.055 526.48Z" fill="#455A64"/>
<path d="M780.307 396.625C779.915 404.829 789.361 418.687 803.84 428.427C818.319 438.167 830.772 442.121 832.341 446.174C825.477 447.449 819.267 450.848 814.169 462.517C809.299 473.76 809.331 474.119 792.629 462.517C775.928 450.914 760.991 424.243 761.056 415.353C761.122 406.463 774.13 389.205 780.667 390.742L780.307 396.625Z" fill="#37474F"/>
<path d="M832.341 446.174C837.244 440.814 841.885 427.38 842.473 421.595L844.598 400.514C846.873 401.129 848.896 402.444 850.383 404.272C852.181 407.018 861.071 425.386 860.777 435.617C860.483 445.847 858.097 459.738 854.632 465.588C851.168 471.439 848.847 461.143 846.559 457.123C843.617 451.959 839.597 446.304 832.341 446.174Z" fill="#37474F"/>
<path d="M825.739 457.94C825.739 457.94 826.556 494.972 823.124 514.681C830.451 515.852 837.932 515.652 845.186 514.092C845.186 514.092 839.531 521.054 818.81 517.851C818.81 517.851 825.183 479.185 825.739 457.94Z" fill="#37474F"/>
<path d="M913.431 286.871C912.976 271.971 906.881 257.799 896.379 247.22C885.877 236.641 871.751 230.443 856.855 229.878C841.958 229.314 827.403 234.425 816.131 244.179C804.858 253.933 797.709 267.603 796.127 282.426L769.424 263.436C766.267 263.11 763.077 263.509 760.098 264.602C757.119 265.695 754.428 267.454 752.232 269.744C744.91 277.458 749.421 301.154 758.997 324.295C758.997 324.295 768.639 366.49 772.365 373.321C774.842 377.57 778.855 380.705 783.576 382.081L782.661 356.391L889.441 348.71L878.884 341.192C889.298 336.474 898.111 328.823 904.247 319.176C910.382 309.529 913.574 298.303 913.431 286.871Z" fill="#263238"/>
<path d="M781.157 325.928C777.889 327.987 774.62 320.862 768.574 317.201C763.344 313.933 751.611 308.605 743.897 321.581C735.563 335.537 750.696 354.821 761.285 358.809C776.974 364.692 782.563 352.272 782.563 352.272L779.294 417.64C800.768 456.666 864.012 454.312 842.473 421.628L845.055 396.428C845.055 396.428 861.953 398.716 870.157 397.343C883.786 395.023 892.252 384.27 896.305 369.235C902.613 345.343 904.868 326.091 898.527 279.418C891.565 228.234 831.916 228.594 800.016 249.316C768.116 270.038 781.157 325.928 781.157 325.928Z" fill="#FFA8A7"/>
<path d="M911.405 231.601C906.926 229.434 901.846 228.846 896.991 229.934C897.313 226.281 896.476 222.619 894.598 219.468C892.721 216.318 889.898 213.838 886.532 212.383C882.964 210.656 878.966 210.017 875.037 210.546C871.108 211.074 867.422 212.748 864.437 215.357C865.875 210.16 861.169 204.865 855.874 203.689C850.491 203.029 845.032 203.937 840.153 206.303C832.668 209.147 825.281 212.35 817.666 214.899C804.233 219.377 789.95 221.927 777.824 229.215C774.866 230.838 772.282 233.065 770.241 235.752C767.687 239.693 766.535 244.379 766.972 249.055C767.057 250.596 767.276 252.127 767.626 253.63C766.687 252.621 765.581 251.781 764.358 251.146C762.994 250.443 761.501 250.024 759.97 249.915C758.439 249.807 756.903 250.011 755.453 250.515C754.004 251.02 752.672 251.814 751.54 252.85C750.407 253.885 749.497 255.141 748.865 256.539L769.064 266.998C768.574 271.084 768.051 275.169 767.659 279.255C766.547 290.008 764.39 302.592 766.907 313.312C767.039 314.6 767.489 315.835 768.214 316.907C772.104 319.902 775.635 323.334 778.739 327.138C780.308 329.033 782.203 332.106 784.72 332.857C786.084 333.207 787.527 333.072 788.803 332.476C790.078 331.88 791.108 330.859 791.714 329.589C792.135 328.034 792.213 326.406 791.943 324.817L789.982 304.88C789.679 303.124 789.791 301.322 790.309 299.617C791.494 297.521 793.164 295.739 795.179 294.421C797.502 292.428 799.402 289.99 800.767 287.251C802.131 284.511 802.932 281.525 803.121 278.471C803.064 276.55 803.239 274.629 803.644 272.751C804.069 271.345 805.18 269.156 806.913 269.156C810.018 269.156 826.948 272.816 831.197 273.405C853.357 276.444 877.152 277.032 896.566 266.149C904.181 261.932 916.994 253.075 918.334 243.727C918.51 241.247 917.945 238.77 916.712 236.611C915.478 234.452 913.631 232.709 911.405 231.601Z" fill="#263238"/>
<path d="M845.055 396.396C845.055 396.396 814.43 390.676 803.677 385.153C797.347 381.984 792.127 376.97 788.708 370.771C790.4 376.994 793.335 382.808 797.336 387.865C805.279 397.671 844.238 404.502 844.238 404.502L845.055 396.396Z" fill="#F28F8F"/>
<path d="M843.748 320.307C843.722 321.436 843.365 322.532 842.72 323.46C842.075 324.387 841.172 325.104 840.123 325.521C839.073 325.939 837.925 326.038 836.819 325.806C835.714 325.575 834.701 325.024 833.907 324.221C833.113 323.418 832.573 322.399 832.354 321.291C832.135 320.183 832.247 319.035 832.676 317.991C833.105 316.946 833.832 316.051 834.766 315.416C835.701 314.782 836.801 314.437 837.93 314.424C838.7 314.424 839.462 314.576 840.172 314.873C840.882 315.169 841.526 315.604 842.067 316.151C842.608 316.698 843.036 317.347 843.324 318.061C843.613 318.774 843.757 319.538 843.748 320.307Z" fill="#263238"/>
<path d="M832.602 299.029L819.136 305.566C818.302 303.721 818.21 301.626 818.879 299.715C819.548 297.804 820.928 296.224 822.732 295.303C823.621 294.881 824.587 294.642 825.572 294.601C826.556 294.56 827.538 294.719 828.46 295.066C829.381 295.414 830.223 295.945 830.935 296.626C831.647 297.307 832.214 298.124 832.602 299.029Z" fill="#263238"/>
<path d="M832.766 356.26L857.05 364.954C856.548 366.588 855.721 368.105 854.619 369.412C853.517 370.719 852.163 371.791 850.638 372.563C849.112 373.335 847.446 373.792 845.74 373.905C844.034 374.018 842.323 373.786 840.708 373.223C837.447 371.972 834.797 369.506 833.316 366.343C831.835 363.18 831.638 359.565 832.766 356.26Z" fill="#B16668"/>
<path d="M848.095 373.517C847.632 370.209 845.882 367.217 843.227 365.192C840.571 363.166 837.223 362.27 833.91 362.698C833.38 362.784 832.856 362.904 832.341 363.058C832.734 365.337 833.716 367.475 835.189 369.258C836.663 371.041 838.577 372.408 840.741 373.223C843.105 374.068 845.671 374.17 848.095 373.517Z" fill="#F28F8F"/>
<path d="M896.337 303.475L883.263 296.709C883.687 295.847 884.282 295.079 885.012 294.454C885.741 293.829 886.59 293.358 887.507 293.071C888.424 292.783 889.39 292.685 890.346 292.783C891.302 292.88 892.228 293.17 893.069 293.637C894.784 294.531 896.084 296.058 896.694 297.894C897.304 299.73 897.176 301.731 896.337 303.475Z" fill="#263238"/>
<path d="M889.735 319.456C889.761 320.22 889.636 320.982 889.368 321.698C889.099 322.414 888.693 323.07 888.17 323.629C887.648 324.187 887.021 324.637 886.325 324.953C885.629 325.269 884.877 325.445 884.113 325.47C882.558 325.462 881.07 324.838 879.974 323.736C878.878 322.633 878.262 321.142 878.262 319.587C878.203 318.797 878.307 318.004 878.568 317.256C878.829 316.509 879.242 315.823 879.781 315.242C880.319 314.662 880.972 314.198 881.697 313.882C882.423 313.565 883.207 313.401 883.999 313.401C884.79 313.401 885.574 313.565 886.3 313.882C887.025 314.198 887.678 314.662 888.217 315.242C888.755 315.823 889.168 316.509 889.429 317.256C889.69 318.004 889.794 318.797 889.735 319.587V319.456Z" fill="#263238"/>
<path d="M860.482 315.895L861.626 352.991L883.492 347.893L860.482 315.895Z" fill="#F28F8F"/>
<path d="M1020.54 858.978C1020.38 859.284 1020.18 859.569 1019.95 859.828L784.23 785.079C775.276 781.119 765.193 780.526 755.837 783.409C746.481 786.291 738.48 792.456 733.307 800.767L481.311 1175.3L471.995 1180.69C470.96 1181.42 469.758 1181.87 468.501 1182C467.244 1182.14 465.973 1181.96 464.805 1181.48L723.959 795.44C729.143 787.13 737.148 780.967 746.506 778.08C755.865 775.192 765.95 775.774 774.914 779.719L1020.54 858.978Z" fill="#C2410C"/>
<path opacity="0.4" d="M710.101 837.537L710.69 837.014L481.31 1175.3L471.963 1180.69C470.919 1181.41 469.713 1181.86 468.453 1182C467.194 1182.15 465.918 1181.98 464.74 1181.51L701.08 832.079L710.101 837.537Z" fill="white"/>
<path opacity="0.4" d="M1020.54 859.011C1020.37 859.312 1020.17 859.596 1019.95 859.861L784.23 785.079C775.273 781.104 765.181 780.502 755.815 783.386C746.45 786.269 738.444 792.443 733.275 800.768L723.959 795.342C729.151 787.06 737.151 780.923 746.495 778.055C755.84 775.186 765.904 775.777 774.849 779.719L1020.54 859.011Z" fill="white"/>
<path d="M1034.69 433.493C1034.17 430.453 1032.57 429.604 1030.47 431.042C1029.43 431.83 1028.51 432.779 1027.76 433.852L1026.58 435.487L793.969 789.132L759.259 837.505C757.019 840.327 754.052 842.485 750.677 843.746C747.302 845.008 743.647 845.324 740.106 844.663L710.134 837.537L481.343 753.31C479.813 752.939 478.225 752.872 476.669 753.114C476.077 753.249 475.498 753.435 474.937 753.669L483.566 748.701L702.976 829.105L731.869 839.433C735.409 840.107 739.066 839.793 742.439 838.524C745.812 837.256 748.771 835.082 750.989 832.243L785.733 783.902L1019.46 428.623C1020.19 427.661 1021.08 426.841 1022.11 426.204L1001.87 414.536L1010.37 409.666L1024.36 417.739C1027.04 419.549 1029.34 421.874 1031.11 424.578C1032.88 427.283 1034.1 430.313 1034.69 433.493Z" fill="#C2410C"/>
<path opacity="0.4" d="M793.937 789.099L759.193 837.505C756.956 840.321 753.995 842.476 750.626 843.737C747.258 844.998 743.609 845.318 740.073 844.663L710.101 837.537L710.689 837.014L712.128 834.727L731.738 839.4C735.275 840.078 738.931 839.769 742.303 838.506C745.676 837.243 748.636 835.076 750.859 832.243L785.275 784.425L793.937 789.099Z" fill="white"/>
<path opacity="0.1" d="M1024.23 417.706L1010.24 409.666L1001.78 414.536L1021.98 426.204C1020.95 426.841 1020.05 427.661 1019.33 428.623L785.57 783.902L785.243 784.36L793.904 789.066L1026.49 435.454L1027.7 433.787C1028.43 432.707 1029.35 431.766 1030.41 431.009C1032.47 429.571 1034.1 430.388 1034.59 433.46C1034.01 430.275 1032.79 427.24 1031.01 424.534C1029.23 421.828 1026.92 419.506 1024.23 417.706Z" fill="black"/>
<path d="M485.886 760.075L435.977 731.248V1160.79C436.189 1164.48 437.264 1168.07 439.114 1171.27C440.965 1174.47 443.539 1177.19 446.632 1179.22L458.627 1186.15C461.928 1187.81 465.571 1188.68 469.266 1188.68C472.961 1188.68 476.605 1187.81 479.905 1186.15L485.886 1182.68V760.075Z" fill="#C2410C"/>
<path opacity="0.15" d="M485.886 760.075L435.977 731.248V1160.79C436.189 1164.48 437.264 1168.07 439.114 1171.27C440.965 1174.47 443.539 1177.19 446.632 1179.22L458.627 1186.15C461.928 1187.81 465.571 1188.68 469.266 1188.68C472.961 1188.68 476.605 1187.81 479.905 1186.15L485.886 1182.68V760.075Z" fill="black"/>
<path d="M1034.89 436.173V853.422C1034.76 857.232 1033.64 860.942 1031.62 864.175C1030.04 866.917 1027.91 869.308 1025.37 871.202L1024.95 871.398L1024.3 871.856L479.905 1186.12C478.864 1186.85 477.653 1187.32 476.386 1187.47C475.118 1187.62 473.833 1187.44 472.649 1186.97C471.733 1186.44 470.958 1185.71 470.389 1184.82C469.82 1183.93 469.474 1182.92 469.381 1181.87C469.33 1181.24 469.33 1180.6 469.381 1179.97V762.723C469.287 761.229 469.558 759.734 470.17 758.368C470.782 757.001 471.716 755.804 472.892 754.878C474.069 753.952 475.453 753.326 476.924 753.053C478.396 752.78 479.913 752.868 481.343 753.31L710.134 837.537L740.105 844.663C743.647 845.324 747.302 845.008 750.677 843.746C754.052 842.485 757.019 840.327 759.258 837.505L793.969 789.132L1026.58 435.487L1027.76 433.852C1031.68 428.361 1034.89 429.407 1034.89 436.173Z" fill="#C2410C"/>
<path d="M1024.26 871.856C1024.5 871.731 1024.73 871.589 1024.95 871.431L1025.34 871.17C1027.88 869.304 1030.01 866.934 1031.58 864.208C1033.56 861.017 1034.69 857.37 1034.85 853.618L793.937 789.132L955.267 911.666L1024.26 871.856Z" fill="#C2410C"/>
<path opacity="0.2" d="M1024.26 871.856C1024.5 871.731 1024.73 871.589 1024.95 871.431L1025.34 871.17C1027.88 869.304 1030.01 866.934 1031.58 864.208C1033.56 861.017 1034.69 857.37 1034.85 853.618L793.937 789.132L955.267 911.666L1024.26 871.856Z" fill="black"/>
<path d="M469.25 1179.91C469.085 1181.26 469.304 1182.64 469.882 1183.87C470.46 1185.11 471.373 1186.16 472.518 1186.9C473.699 1187.39 474.983 1187.57 476.251 1187.42C477.519 1187.28 478.731 1186.82 479.774 1186.08L667.187 1077.9L710.003 837.505L469.283 1173.04L469.25 1179.91Z" fill="#C2410C"/>
<path opacity="0.15" d="M733.209 800.768L472.584 1186.97C471.439 1186.22 470.525 1185.17 469.947 1183.94C469.37 1182.7 469.15 1181.33 469.315 1179.97V1173.04L723.894 795.473L733.209 800.768Z" fill="black"/>
<path d="M1031.59 864.208C1030.01 866.934 1027.88 869.304 1025.34 871.17L1024.95 871.431L479.905 1186.12C478.862 1186.85 477.65 1187.31 476.382 1187.46C475.114 1187.6 473.83 1187.42 472.649 1186.93L733.242 800.768C738.446 792.418 746.485 786.223 755.885 783.318C765.285 780.413 775.418 780.991 784.426 784.948L1031.59 864.208Z" fill="#C2410C"/>
<path opacity="0.15" d="M437.971 692.647L446.632 697.648C445.376 701.395 444.661 705.302 444.508 709.251V736.216L435.846 731.215V704.218C436.003 700.28 436.718 696.384 437.971 692.647Z" fill="black"/>
<path d="M483.468 748.701L474.839 753.669L466.08 748.636L444.606 736.248L452.94 731.28L483.468 748.701Z" fill="#C2410C"/>
<path opacity="0.1" d="M483.729 748.864L452.842 731.28L444.508 736.248L465.981 748.636L474.741 753.669C475.261 753.427 475.811 753.251 476.375 753.146C477.917 752.877 479.497 752.933 481.016 753.31L498.404 759.846L698.204 833.419L701.473 828.778L483.729 748.864Z" fill="black"/>
<path d="M722.325 421.629C694.576 423.623 675.554 430.225 657.708 473.172C646.138 500.921 600.837 600.641 596.458 617.18C591.326 636.529 579.723 783.707 579.723 783.707L606.198 793.512C606.198 793.512 597.144 825.183 589.463 843.258C580.638 864.143 623.749 859.763 637.607 840.806C651.465 821.849 660.879 796.454 653.296 787.531C647.072 780.273 640.031 773.758 632.312 768.116L661.271 636.823L722.031 507.654C722.031 507.654 752.591 444.508 722.325 421.629Z" fill="#FFA8A7"/>
<path d="M632.378 768.345C624.196 763.6 614.964 760.961 605.511 760.664C614.702 758.077 624.429 758.077 633.62 760.664L632.378 768.345Z" fill="#F28F8F"/>
<path d="M728.666 420.452C713.108 420.452 684.052 419.635 665.225 453.627C646.399 487.618 619.794 552.366 619.794 552.366C619.794 552.366 630.842 579.56 690.066 585.247L735.399 488.599C735.399 488.599 746.479 444.312 728.666 420.452Z" fill="#37474F"/>
<path d="M929.61 442.743C953.012 461.21 990.991 490.201 1009.46 501.804C1023.41 484.939 1049.1 450.751 1055.22 443.266C1063.26 433.755 1088.39 418.36 1088.39 418.36L1097.84 456.242C1097.84 456.242 1050.38 543.771 1033.19 559.949C1015.08 577.011 1001.97 569.951 966.576 553.739C933.14 538.41 896.827 519.388 896.827 519.388C904.018 455.784 899.148 421.335 868.751 410.614C889.016 413 909.967 427.283 929.61 442.743Z" fill="#FFA8A7"/>
<path d="M990.697 489.024C978.473 492.292 953.208 528.245 957.816 551.124L893.428 519.29C901.207 475.395 902.907 421.237 865.81 410.745C862.252 409.904 858.614 409.444 854.958 409.372C873.425 407.542 885.486 408.097 904.835 422.642C924.184 437.187 990.697 489.024 990.697 489.024Z" fill="#37474F"/>
<path d="M1009.46 501.803C1000.24 509.909 997.266 524.486 995.469 530.272C994.711 518.959 997.76 507.718 1004.13 498.339L1009.46 501.803Z" fill="#F28F8F"/>
<path d="M1099.11 375.87L1121.21 362.47C1121.21 362.47 1123.72 481.604 1123.82 485.461C1124.42 488.477 1126.06 491.185 1128.46 493.109L1106.37 506.608C1103.98 504.674 1102.34 501.971 1101.73 498.96C1101.66 494.907 1099.11 375.87 1099.11 375.87Z" fill="#37474F"/>
<path d="M1122.25 412.053C1122.25 412.053 1128.59 413.556 1131.01 423.394C1133.43 433.232 1134.67 452.026 1129.02 458.203C1123.36 464.38 1115.65 467.093 1110.52 464.74C1100.94 460.589 1103.98 441.142 1111.53 436.631C1123.82 429.474 1122.35 421.564 1122.35 421.564L1122.25 412.053Z" fill="#FFA8A7"/>
<path d="M1072.05 376.165L1081.85 387.964L1083.59 471.963L1073.78 488.305L1106.47 506.347C1103.99 504.489 1102.33 501.75 1101.82 498.699L1099.54 391.167L1072.05 376.165Z" fill="#455A64"/>
<path d="M1073.55 488.403L1073.65 493.535L1106.5 511.609L1106.37 506.445L1073.55 488.403Z" fill="#C2410C"/>
<path d="M1106.5 511.609L1128.56 498.208L1128.43 493.044L1106.37 506.445L1106.5 511.609Z" fill="#C2410C"/>
<path opacity="0.1" d="M1106.5 511.609L1128.56 498.208L1128.43 493.044L1106.37 506.445L1106.5 511.609Z" fill="black"/>
<path d="M1078.39 317.889C1074.07 316.81 1069.11 318.608 1064.5 323.543L1064.33 323.739C1059.67 329.311 1056.38 335.906 1054.74 342.988C1053.09 350.07 1053.15 357.439 1054.89 364.496V364.725C1056.92 371.262 1060.71 375.184 1065.18 376.001L1084.27 380.577L1095.94 322.138L1078.39 317.889Z" fill="#C2410C"/>
<path opacity="0.7" d="M1078.39 317.889C1074.07 316.81 1069.11 318.608 1064.5 323.543L1064.33 323.739C1059.67 329.311 1056.38 335.906 1054.74 342.988C1053.09 350.07 1053.15 357.439 1054.89 364.496V364.725C1056.92 371.262 1060.71 375.184 1065.18 376.001L1084.27 380.577L1095.94 322.138L1078.39 317.889Z" fill="white"/>
<path opacity="0.05" d="M1065.25 375.871L1084.34 380.447L1088.19 361.065L1053.48 353.024C1053.35 356.855 1053.83 360.683 1054.89 364.366V364.595C1056.98 371.328 1060.77 375.184 1065.25 375.871Z" fill="black"/>
<path d="M1117.05 319.523C1114.21 319.089 1111.3 319.37 1108.59 320.34C1105.88 321.31 1103.45 322.938 1101.53 325.079C1100.97 325.57 1100.42 326.125 1099.86 326.714C1099.31 327.302 1098.62 328.086 1098.03 328.838C1097.01 330.097 1096.08 331.418 1095.22 332.793C1093.57 335.397 1092.14 338.142 1090.97 340.997C1087.72 348.915 1086.11 357.409 1086.23 365.968C1086.3 369.985 1086.9 373.976 1088.03 377.832C1090.42 385.644 1094.76 390.35 1099.96 391.723L1081.85 387.539C1078.43 386.549 1075.31 384.704 1072.79 382.176C1070.28 379.649 1068.45 376.523 1067.47 373.093C1066.41 369.403 1065.81 365.591 1065.71 361.751C1065.49 353.005 1067.11 344.311 1070.45 336.225C1071.61 333.385 1073.03 330.651 1074.66 328.054C1075.53 326.686 1076.47 325.366 1077.47 324.099C1078.06 323.358 1078.68 322.639 1079.34 321.942C1079.86 321.375 1080.42 320.84 1081 320.34C1083.35 318.207 1086.16 316.644 1089.21 315.771C1092.26 314.898 1095.47 314.739 1098.59 315.307H1099.11H1099.76L1117.05 319.523Z" fill="#C2410C"/>
<path opacity="0.1" d="M1081.85 387.539C1078.43 386.549 1075.31 384.703 1072.79 382.176C1070.28 379.649 1068.45 376.523 1067.47 373.092C1066.4 369.402 1065.81 365.591 1065.71 361.751L1086.3 366C1086.36 370.018 1086.97 374.009 1088.1 377.864C1090.48 385.676 1094.83 390.383 1100.03 391.755L1081.85 387.539Z" fill="black"/>
<path d="M1129.41 333.544C1134.28 349.559 1128.98 372.439 1117.55 384.663C1111.83 390.807 1105.62 393.095 1100.26 391.82H1099.96C1094.76 390.448 1090.42 385.741 1088.03 377.93C1083.16 361.914 1088.46 339.035 1099.86 326.811C1105.58 320.699 1111.73 318.411 1117.05 319.621C1122.38 320.83 1126.96 325.504 1129.41 333.544Z" fill="#C2410C"/>
<path opacity="0.2" d="M1129.41 333.544C1134.28 349.559 1128.98 372.439 1117.55 384.663C1111.83 390.807 1105.62 393.095 1100.26 391.82H1099.96C1094.76 390.448 1090.42 385.741 1088.03 377.93C1083.16 361.914 1088.46 339.035 1099.86 326.811C1105.58 320.699 1111.73 318.411 1117.05 319.621C1122.38 320.83 1126.96 325.504 1129.41 333.544Z" fill="black"/>
<path d="M1205.11 305.926C1205.11 305.926 1183.73 326.648 1173.53 370.706C1171.67 378.613 1170.37 386.64 1169.64 394.729C1166.9 424.668 1173.4 442.743 1173.4 442.743C1160.33 426.4 1145 410.287 1124.87 400.253C1117 396.424 1108.94 393.009 1100.71 390.023C1095.84 388.879 1091.82 384.401 1089.63 377.21C1088.18 372.139 1087.62 366.851 1088 361.587C1088.17 358.052 1088.66 354.541 1089.47 351.096C1091.28 342.437 1095.29 334.389 1101.1 327.726C1106.24 322.235 1111.83 319.947 1116.69 321.189C1125.38 322.117 1134.11 322.597 1142.84 322.628C1165.3 322.595 1186.15 314.653 1205.11 305.926Z" fill="#C2410C"/>
<path opacity="0.7" d="M1205.11 305.926C1205.11 305.926 1183.73 326.648 1173.53 370.706C1171.67 378.613 1170.37 386.64 1169.64 394.729C1166.9 424.668 1173.4 442.743 1173.4 442.743C1160.33 426.4 1145 410.287 1124.87 400.253C1117 396.424 1108.94 393.009 1100.71 390.023C1095.84 388.879 1091.82 384.401 1089.63 377.21C1088.18 372.139 1087.62 366.851 1088 361.587C1088.17 358.052 1088.66 354.541 1089.47 351.096C1091.28 342.437 1095.29 334.389 1101.1 327.726C1106.24 322.235 1111.83 319.947 1116.69 321.189C1125.38 322.117 1134.11 322.597 1142.84 322.628C1165.3 322.595 1186.15 314.653 1205.11 305.926Z" fill="white"/>
<path opacity="0.05" d="M1169.64 394.73C1166.9 424.669 1173.4 442.743 1173.4 442.743C1160.33 426.401 1145 410.288 1124.87 400.254C1117 396.425 1108.94 393.01 1100.71 390.023C1095.84 388.879 1091.82 384.402 1089.63 377.211C1088.18 372.139 1087.62 366.851 1088 361.588C1110.09 365.477 1146.54 373.746 1169.64 394.73Z" fill="black"/>
<path d="M1263.81 327.53C1268.81 345.793 1269.53 364.962 1265.93 383.551C1261.62 408.555 1250.86 432.839 1235.47 449.182C1208.31 478.303 1176.87 470.982 1165.23 432.839C1162.55 423.67 1161.11 414.184 1160.95 404.633C1160.57 379.421 1166.58 354.525 1178.44 332.27C1180.1 329.263 1181.7 326.386 1183.67 323.608L1186.02 320.34C1187.16 318.738 1188.31 317.235 1189.52 315.764C1190.73 314.293 1192.07 312.724 1193.41 311.319C1220.76 282.164 1252.2 289.42 1263.81 327.53Z" fill="#C2410C"/>
<path opacity="0.1" d="M1265.93 383.552C1261.62 408.555 1250.86 432.84 1235.47 449.182C1208.31 478.304 1176.87 470.983 1165.23 432.84C1162.55 423.671 1161.11 414.184 1160.95 404.633C1164.68 408.882 1174.84 413.458 1176.93 407.444C1177.1 415.91 1178.39 424.318 1180.76 432.448C1184.02 443.397 1189.22 451.503 1195.6 455.85C1198.24 457.686 1201.27 458.874 1204.46 459.317C1207.64 459.76 1210.89 459.445 1213.93 458.399C1221.61 455.624 1228.45 450.933 1233.8 444.77C1246.88 430.879 1256.29 410.091 1260.93 388.454C1261.09 388.52 1263.68 389.631 1265.93 383.552Z" fill="black"/>
<path d="M1260.38 330.897C1265.51 347.73 1265.38 368.517 1261.1 388.52C1256.45 410.157 1246.98 431.01 1233.97 444.835C1228.61 450.998 1221.77 455.69 1214.09 458.465C1211.05 459.511 1207.81 459.825 1204.62 459.382C1201.44 458.939 1198.4 457.751 1195.76 455.915C1189.22 451.568 1184.25 443.462 1180.92 432.513C1178.55 424.383 1177.27 415.976 1177.1 407.51C1177.1 404.241 1177.1 400.744 1177.1 397.312C1177.4 391.223 1178.12 385.162 1179.25 379.172C1179.48 377.93 1179.71 376.688 1179.97 375.479C1180.4 373.42 1180.85 371.361 1181.38 369.334C1183.11 362.464 1185.36 355.733 1188.11 349.201V348.972C1189.89 344.769 1191.9 340.667 1194.12 336.682C1195.69 333.872 1197.39 331.191 1199.09 328.642L1201.35 325.374C1202.3 324.164 1203.24 322.955 1204.19 321.811C1205.14 320.667 1206.12 319.588 1207.1 318.543C1212.44 312.369 1219.29 307.675 1226.97 304.913C1241.68 300.697 1254.1 310.273 1260.38 330.897Z" fill="#C2410C"/>
<path opacity="0.3" d="M1260.38 330.897C1265.51 347.73 1265.38 368.517 1261.1 388.52C1256.45 410.157 1246.98 431.01 1233.97 444.835C1228.61 450.998 1221.77 455.69 1214.09 458.465C1211.05 459.511 1207.81 459.825 1204.62 459.382C1201.44 458.939 1198.4 457.751 1195.76 455.915C1189.22 451.568 1184.25 443.462 1180.92 432.513C1178.55 424.383 1177.27 415.976 1177.1 407.51C1177.1 404.241 1177.1 400.744 1177.1 397.312C1177.4 391.223 1178.12 385.162 1179.25 379.172C1179.48 377.93 1179.71 376.688 1179.97 375.479C1180.4 373.42 1180.85 371.361 1181.38 369.334C1183.11 362.464 1185.36 355.733 1188.11 349.201V348.972C1189.89 344.769 1191.9 340.667 1194.12 336.682C1195.69 333.872 1197.39 331.191 1199.09 328.642L1201.35 325.374C1202.3 324.164 1203.24 322.955 1204.19 321.811C1205.14 320.667 1206.12 319.588 1207.1 318.543C1212.44 312.369 1219.29 307.675 1226.97 304.913C1241.68 300.697 1254.1 310.273 1260.38 330.897Z" fill="black"/>
<path d="M1212.59 355.737L1203.57 401.234C1197.03 400.842 1185.95 400.319 1177.23 400.744C1177.23 399.6 1177.23 398.456 1177.23 397.475C1177.55 391.388 1178.27 385.328 1179.38 379.335C1179.61 378.093 1179.87 376.884 1180.1 375.642C1180.53 373.583 1181.02 371.524 1181.54 369.53C1183.27 362.65 1185.51 355.909 1188.24 349.364C1188.25 349.288 1188.25 349.211 1188.24 349.135C1188.67 348.187 1189.06 347.239 1189.48 346.324C1196.89 350.136 1204.63 353.286 1212.59 355.737Z" fill="#C2410C"/>
<g opacity="0.4">
<path d="M1212.59 355.737L1203.57 401.234C1197.03 400.842 1185.95 400.319 1177.23 400.744C1177.23 399.6 1177.23 398.456 1177.23 397.475C1177.55 391.388 1178.27 385.328 1179.38 379.335C1179.61 378.093 1179.87 376.884 1180.1 375.642C1180.53 373.583 1181.02 371.524 1181.54 369.53C1183.27 362.65 1185.51 355.909 1188.24 349.364C1188.25 349.288 1188.25 349.211 1188.24 349.135C1188.67 348.187 1189.06 347.239 1189.48 346.324C1196.89 350.136 1204.63 353.286 1212.59 355.737Z" fill="white"/>
</g>
<path d="M1205.17 400.612C1200.43 402.05 1196.41 399.109 1194.48 392.67V392.474C1193.11 386.894 1193.07 381.069 1194.36 375.471C1195.66 369.872 1198.25 364.657 1201.94 360.247C1203.54 358.392 1205.6 356.984 1207.92 356.162C1212.66 354.723 1216.64 357.698 1218.61 364.104V364.3C1219.98 369.879 1220.03 375.705 1218.73 381.304C1217.44 386.903 1214.84 392.118 1211.15 396.527C1209.53 398.356 1207.47 399.75 1205.17 400.58V400.612Z" fill="#C2410C"/>
<g opacity="0.7">
<path d="M1205.17 400.612C1200.43 402.05 1196.41 399.109 1194.48 392.67V392.474C1193.11 386.894 1193.07 381.069 1194.36 375.471C1195.66 369.872 1198.25 364.657 1201.94 360.247C1203.54 358.392 1205.6 356.984 1207.92 356.162C1212.66 354.723 1216.64 357.698 1218.61 364.104V364.3C1219.98 369.879 1220.03 375.705 1218.73 381.304C1217.44 386.903 1214.84 392.118 1211.15 396.527C1209.53 398.356 1207.47 399.75 1205.17 400.58V400.612Z" fill="white"/>
</g>
<path d="M1194.16 283.504C1193.54 283.7 1192.89 283.771 1192.24 283.712C1191.6 283.653 1190.97 283.466 1190.4 283.162C1189.83 282.857 1189.32 282.442 1188.91 281.939C1188.5 281.437 1188.2 280.858 1188.01 280.236L1174.12 234.674C1173.85 233.459 1174.04 232.187 1174.67 231.111C1175.3 230.034 1176.3 229.234 1177.49 228.871C1178.68 228.507 1179.97 228.606 1181.09 229.149C1182.21 229.692 1183.08 230.638 1183.53 231.797L1197.43 277.36C1197.62 277.977 1197.69 278.628 1197.63 279.274C1197.57 279.919 1197.39 280.547 1197.08 281.119C1196.78 281.691 1196.36 282.197 1195.86 282.607C1195.36 283.016 1194.78 283.321 1194.16 283.504Z" fill="#E0E0E0"/>
<path d="M1156.08 307.233C1155.25 307.485 1154.37 307.515 1153.53 307.32C1152.69 307.125 1151.91 306.712 1151.28 306.122L1116.47 273.437C1115.95 273.008 1115.52 272.477 1115.21 271.877C1114.9 271.277 1114.72 270.62 1114.68 269.946C1114.64 269.273 1114.73 268.598 1114.96 267.963C1115.19 267.328 1115.54 266.747 1116 266.254C1116.46 265.762 1117.02 265.369 1117.64 265.101C1118.26 264.832 1118.92 264.693 1119.6 264.692C1120.27 264.692 1120.94 264.829 1121.56 265.097C1122.18 265.364 1122.74 265.755 1123.2 266.247L1158.01 298.931C1158.48 299.372 1158.87 299.902 1159.13 300.491C1159.4 301.08 1159.55 301.717 1159.57 302.364C1159.6 303.012 1159.49 303.657 1159.26 304.262C1159.03 304.868 1158.68 305.422 1158.24 305.893C1157.66 306.536 1156.91 307 1156.08 307.233Z" fill="#E0E0E0"/>
<path d="M1179.91 540.044C1179.07 540.257 1178.19 540.257 1177.36 540.044C1176.08 539.748 1174.98 538.959 1174.29 537.85C1173.59 536.741 1173.37 535.402 1173.66 534.128L1184.42 487.716C1184.54 487.063 1184.8 486.442 1185.17 485.89C1185.54 485.338 1186.01 484.866 1186.57 484.503C1187.13 484.14 1187.75 483.893 1188.41 483.777C1189.06 483.661 1189.73 483.678 1190.38 483.828C1191.03 483.978 1191.64 484.257 1192.17 484.648C1192.71 485.04 1193.16 485.536 1193.5 486.107C1193.84 486.677 1194.07 487.311 1194.16 487.969C1194.25 488.628 1194.2 489.298 1194.03 489.939L1183.18 536.449C1182.99 537.279 1182.59 538.046 1182.01 538.676C1181.44 539.306 1180.72 539.778 1179.91 540.044Z" fill="#E0E0E0"/>
<path d="M1266.36 520.369C1265.11 520.746 1263.76 520.614 1262.61 520.002C1261.46 519.389 1260.6 518.346 1260.21 517.1L1246.32 471.538C1246.07 470.905 1245.96 470.228 1245.99 469.549C1246.02 468.87 1246.18 468.204 1246.48 467.593C1246.77 466.981 1247.19 466.438 1247.71 465.996C1248.23 465.554 1248.83 465.224 1249.48 465.025C1250.13 464.826 1250.81 464.764 1251.49 464.842C1252.16 464.92 1252.81 465.137 1253.4 465.478C1253.99 465.819 1254.5 466.278 1254.9 466.826C1255.3 467.374 1255.59 467.999 1255.73 468.662L1269.63 514.224C1270 515.472 1269.87 516.819 1269.26 517.97C1268.65 519.122 1267.6 519.984 1266.36 520.369Z" fill="#E0E0E0"/>
<path d="M1317.64 458.17C1316.81 458.422 1315.93 458.452 1315.09 458.257C1314.24 458.062 1313.47 457.649 1312.83 457.058L1278.03 424.374C1277.16 423.465 1276.67 422.258 1276.66 421.002C1276.65 419.745 1277.12 418.532 1277.98 417.61C1278.83 416.689 1280.01 416.128 1281.26 416.043C1282.51 415.957 1283.75 416.354 1284.73 417.151L1319.57 449.672C1320.04 450.112 1320.43 450.642 1320.69 451.232C1320.96 451.821 1321.11 452.457 1321.13 453.105C1321.15 453.752 1321.05 454.397 1320.82 455.003C1320.59 455.609 1320.24 456.163 1319.8 456.633C1319.23 457.328 1318.48 457.858 1317.64 458.17Z" fill="#E0E0E0"/>
<path d="M1350.32 396.789C1349.49 397.003 1348.61 397.003 1347.77 396.789L1301.36 386.036C1300.09 385.732 1298.99 384.942 1298.3 383.835C1297.61 382.728 1297.38 381.394 1297.67 380.12C1297.81 379.487 1298.08 378.889 1298.45 378.36C1298.83 377.831 1299.3 377.381 1299.86 377.038C1300.41 376.694 1301.02 376.463 1301.66 376.359C1302.3 376.254 1302.95 376.277 1303.58 376.427L1350 387.18C1351.05 387.431 1351.99 388.02 1352.67 388.856C1353.36 389.693 1353.75 390.731 1353.78 391.811C1353.82 392.891 1353.5 393.953 1352.88 394.835C1352.25 395.716 1351.35 396.369 1350.32 396.691V396.789Z" fill="#E0E0E0"/>
<path d="M1347.97 327.269L1302.38 341.16C1301.76 341.351 1301.11 341.418 1300.46 341.357C1299.82 341.297 1299.19 341.109 1298.62 340.805C1298.05 340.501 1297.55 340.087 1297.14 339.587C1296.72 339.087 1296.42 338.511 1296.23 337.891C1295.85 336.643 1295.98 335.296 1296.6 334.145C1297.21 332.993 1298.25 332.131 1299.5 331.747L1345.26 317.856C1346.47 317.583 1347.74 317.778 1348.82 318.404C1349.9 319.029 1350.7 320.038 1351.06 321.228C1351.42 322.419 1351.32 323.703 1350.78 324.823C1350.24 325.943 1349.29 326.817 1348.13 327.269H1347.97Z" fill="#E0E0E0"/>
<path d="M1278.65 303.083C1277.61 303.401 1276.49 303.368 1275.48 302.989C1274.46 302.61 1273.6 301.906 1273.02 300.987C1272.44 300.068 1272.19 298.984 1272.29 297.903C1272.39 296.823 1272.84 295.806 1273.58 295.01L1306.1 260.201C1306.54 259.726 1307.07 259.344 1307.66 259.075C1308.25 258.806 1308.89 258.656 1309.54 258.633C1310.19 258.61 1310.83 258.715 1311.44 258.942C1312.05 259.169 1312.6 259.513 1313.08 259.956C1313.55 260.398 1313.94 260.929 1314.21 261.519C1314.47 262.109 1314.62 262.746 1314.65 263.394C1314.67 264.042 1314.56 264.688 1314.34 265.295C1314.11 265.903 1313.77 266.459 1313.32 266.934L1280.8 301.743C1280.21 302.371 1279.47 302.833 1278.65 303.083Z" fill="#E0E0E0"/>
<path d="M1239 282.001C1238.18 282.214 1237.31 282.214 1236.48 282.001C1235.85 281.859 1235.25 281.592 1234.72 281.217C1234.19 280.841 1233.75 280.365 1233.4 279.814C1233.06 279.264 1232.83 278.651 1232.72 278.011C1232.62 277.371 1232.64 276.716 1232.79 276.085L1243.54 229.673C1243.67 229.02 1243.92 228.399 1244.29 227.847C1244.66 227.295 1245.14 226.823 1245.7 226.46C1246.25 226.097 1246.88 225.85 1247.53 225.734C1248.19 225.618 1248.86 225.635 1249.5 225.785C1250.15 225.935 1250.76 226.214 1251.3 226.605C1251.84 226.997 1252.29 227.493 1252.63 228.064C1252.97 228.634 1253.19 229.268 1253.28 229.926C1253.37 230.585 1253.33 231.255 1253.15 231.896L1242.4 278.308C1242.21 279.167 1241.79 279.96 1241.19 280.608C1240.6 281.256 1239.84 281.737 1239 282.001Z" fill="#E0E0E0"/>
<path d="M1055.35 443.266C1064.73 431.369 1065.15 423.884 1072.41 418.033C1079.66 412.183 1087.12 411.823 1098.03 414.961C1106.24 417.314 1115.88 416.138 1119.21 419.177C1120.16 419.831 1118.69 425.093 1114.83 426.989C1110.19 429.277 1102.67 428.721 1097.15 428.754C1084.53 428.754 1094.89 441.174 1082.74 453.725C1077.6 462.713 1055.35 443.266 1055.35 443.266Z" fill="#FFA8A7"/>
<path d="M1343.98 632.411L1459.62 558.348L1510.54 574.69L1343.98 632.411Z" fill="#C2410C"/>
<path d="M1343.98 632.411L1443.93 549.065L1421.71 523.408L1343.98 632.411Z" fill="#C2410C"/>
<path d="M1443.93 549.065V568.382L1343.98 632.411L1443.93 549.065Z" fill="#C2410C"/>
<path opacity="0.25" d="M1443.93 549.065V568.382L1343.98 632.411L1443.93 549.065Z" fill="black"/>
<path d="M1467.53 537.854C1467.06 537.858 1466.59 537.761 1466.17 537.569C1465.74 537.378 1465.35 537.096 1465.04 536.743C1464.76 536.416 1464.54 536.036 1464.41 535.625C1464.27 535.213 1464.22 534.779 1464.25 534.347C1464.29 533.915 1464.41 533.494 1464.6 533.109C1464.8 532.724 1465.07 532.381 1465.4 532.102C1467.4 530.37 1469.39 528.572 1471.32 526.742C1471.96 526.217 1472.77 525.952 1473.59 526C1474.41 526.048 1475.19 526.406 1475.76 527.001C1476.33 527.597 1476.66 528.386 1476.67 529.211C1476.68 530.036 1476.38 530.835 1475.83 531.448C1473.8 533.377 1471.78 535.24 1469.65 537.07C1469.06 537.576 1468.31 537.854 1467.53 537.854Z" fill="#E0E0E0"/>
<path d="M1484.82 520.728C1484.03 520.727 1483.26 520.437 1482.66 519.911C1482.01 519.338 1481.62 518.532 1481.56 517.668C1481.51 516.804 1481.8 515.953 1482.37 515.303C1485.64 511.38 1489.13 507.229 1492.17 502.948C1492.43 502.602 1492.75 502.31 1493.12 502.089C1493.49 501.867 1493.89 501.721 1494.32 501.657C1494.74 501.593 1495.18 501.614 1495.59 501.718C1496.01 501.821 1496.4 502.006 1496.75 502.261C1497.09 502.517 1497.39 502.838 1497.61 503.206C1497.83 503.574 1497.98 503.982 1498.04 504.407C1498.1 504.832 1498.08 505.265 1497.98 505.682C1497.88 506.099 1497.69 506.492 1497.44 506.837C1494.17 511.282 1490.7 515.564 1487.17 519.617C1486.88 519.953 1486.52 520.226 1486.11 520.417C1485.71 520.608 1485.27 520.714 1484.82 520.728ZM1503.97 494.842C1503.37 494.838 1502.78 494.668 1502.27 494.352C1501.91 494.125 1501.59 493.828 1501.34 493.478C1501.09 493.129 1500.91 492.733 1500.81 492.314C1500.72 491.895 1500.7 491.461 1500.77 491.036C1500.84 490.612 1501 490.206 1501.23 489.841C1503.97 485.429 1506.65 480.788 1509.14 476.081C1509.55 475.335 1510.24 474.781 1511.06 474.537C1511.88 474.293 1512.76 474.379 1513.51 474.776C1514.27 475.173 1514.84 475.849 1515.1 476.661C1515.37 477.473 1515.3 478.356 1514.92 479.121C1512.34 483.991 1509.59 488.763 1506.75 493.306C1506.46 493.777 1506.05 494.165 1505.56 494.434C1505.07 494.703 1504.53 494.843 1503.97 494.842ZM1519.04 466.374C1518.59 466.374 1518.14 466.274 1517.73 466.08C1517.34 465.906 1516.98 465.657 1516.69 465.346C1516.39 465.035 1516.16 464.669 1516 464.268C1515.85 463.867 1515.78 463.44 1515.79 463.011C1515.8 462.581 1515.89 462.158 1516.07 461.765C1518.16 456.961 1520.18 451.96 1521.98 447.025C1522.29 446.233 1522.9 445.594 1523.68 445.244C1524.45 444.894 1525.33 444.86 1526.13 445.149C1526.93 445.439 1527.59 446.029 1527.96 446.794C1528.33 447.559 1528.39 448.439 1528.13 449.247C1526.26 454.379 1524.2 459.478 1522.01 464.413C1521.76 464.992 1521.35 465.486 1520.82 465.834C1520.29 466.182 1519.67 466.37 1519.04 466.374ZM1530.09 436.076C1529.78 436.123 1529.48 436.123 1529.17 436.076C1528.34 435.833 1527.64 435.269 1527.22 434.509C1526.8 433.749 1526.71 432.855 1526.95 432.023C1528.42 426.989 1529.76 421.792 1530.94 416.628C1531.03 416.199 1531.21 415.793 1531.46 415.432C1531.71 415.072 1532.03 414.765 1532.4 414.528C1532.77 414.291 1533.19 414.13 1533.62 414.053C1534.05 413.976 1534.5 413.985 1534.92 414.079C1535.35 414.173 1535.76 414.351 1536.12 414.603C1536.48 414.854 1536.79 415.174 1537.03 415.545C1537.26 415.915 1537.42 416.328 1537.5 416.761C1537.58 417.194 1537.57 417.637 1537.47 418.066C1536.26 423.361 1534.89 428.689 1533.39 433.853C1533.16 434.535 1532.71 435.123 1532.12 435.525C1531.52 435.926 1530.81 436.12 1530.09 436.076ZM1537.18 404.633H1536.66C1536.23 404.566 1535.82 404.415 1535.46 404.189C1535.09 403.963 1534.77 403.667 1534.52 403.318C1534.27 402.969 1534.09 402.573 1533.99 402.154C1533.89 401.734 1533.87 401.3 1533.94 400.874C1534.76 395.678 1535.45 390.383 1535.94 385.088C1536.02 384.221 1536.44 383.422 1537.11 382.868C1537.79 382.313 1538.65 382.048 1539.52 382.13C1540.38 382.212 1541.18 382.636 1541.74 383.307C1542.29 383.978 1542.56 384.842 1542.47 385.709C1541.95 391.135 1541.23 396.593 1540.38 402.051C1540.23 402.783 1539.82 403.439 1539.24 403.909C1538.66 404.379 1537.93 404.635 1537.18 404.633ZM1540.22 372.537C1539.35 372.537 1538.52 372.193 1537.91 371.58C1537.3 370.967 1536.95 370.136 1536.95 369.269C1536.95 366.752 1536.95 364.235 1536.95 361.719C1536.95 359.202 1536.95 356.162 1536.95 353.351C1536.95 352.485 1537.3 351.653 1537.91 351.04C1538.52 350.427 1539.35 350.083 1540.22 350.083C1541.09 350.083 1541.92 350.427 1542.53 351.04C1543.14 351.653 1543.49 352.485 1543.49 353.351C1543.49 356.228 1543.49 359.071 1543.49 361.947C1543.49 364.824 1543.49 367.111 1543.49 369.694C1543.4 370.497 1543.02 371.238 1542.41 371.776C1541.81 372.313 1541.03 372.607 1540.22 372.602V372.537ZM1539.08 340.343C1538.26 340.347 1537.48 340.048 1536.87 339.504C1536.27 338.96 1535.89 338.21 1535.81 337.401C1535.25 332.107 1534.53 326.812 1533.62 321.647C1533.47 320.781 1533.67 319.891 1534.18 319.174C1534.69 318.456 1535.46 317.971 1536.33 317.823C1537.2 317.676 1538.09 317.879 1538.8 318.388C1539.52 318.897 1540.01 319.669 1540.15 320.536C1541.1 325.831 1541.85 331.289 1542.41 336.878C1542.45 337.306 1542.42 337.737 1542.29 338.149C1542.17 338.561 1541.97 338.945 1541.7 339.279C1541.43 339.613 1541.1 339.89 1540.72 340.095C1540.34 340.3 1539.93 340.429 1539.5 340.474L1539.08 340.343ZM1533.49 308.574C1532.74 308.597 1532.02 308.367 1531.42 307.922C1530.83 307.476 1530.4 306.842 1530.22 306.122C1528.91 300.958 1527.41 295.859 1525.74 290.891C1525.57 290.478 1525.48 290.034 1525.49 289.586C1525.5 289.138 1525.6 288.696 1525.78 288.288C1525.97 287.88 1526.23 287.515 1526.56 287.214C1526.9 286.913 1527.29 286.684 1527.71 286.54C1528.13 286.397 1528.58 286.342 1529.03 286.379C1529.48 286.416 1529.91 286.545 1530.3 286.757C1530.7 286.968 1531.05 287.259 1531.32 287.611C1531.6 287.962 1531.8 288.367 1531.92 288.8C1533.65 293.931 1535.19 299.193 1536.56 304.521C1536.68 305.01 1536.69 305.521 1536.58 306.013C1536.47 306.506 1536.25 306.966 1535.93 307.358C1535.61 307.751 1535.21 308.065 1534.75 308.276C1534.3 308.486 1533.79 308.589 1533.29 308.574H1533.49ZM1523.09 278.046C1522.46 278.049 1521.83 277.864 1521.3 277.516C1520.76 277.167 1520.34 276.67 1520.09 276.085C1517.99 271.215 1515.67 266.28 1513.19 261.835C1512.76 261.072 1512.64 260.168 1512.88 259.323C1513.11 258.477 1513.67 257.758 1514.43 257.325C1515.19 256.891 1516.1 256.779 1516.94 257.011C1517.79 257.244 1518.51 257.804 1518.94 258.567C1521.52 263.339 1523.91 268.372 1526.1 273.34C1526.44 274.138 1526.44 275.036 1526.12 275.839C1525.79 276.642 1525.16 277.283 1524.37 277.622C1523.98 277.859 1523.54 278.004 1523.09 278.046ZM1507.83 249.709C1507.29 249.712 1506.75 249.579 1506.27 249.322C1505.79 249.065 1505.38 248.693 1505.08 248.238C1502.23 243.783 1499.15 239.474 1495.87 235.328C1495.6 234.992 1495.4 234.605 1495.28 234.191C1495.16 233.777 1495.12 233.343 1495.17 232.915C1495.22 232.487 1495.35 232.072 1495.56 231.695C1495.77 231.318 1496.05 230.987 1496.39 230.719C1497.07 230.185 1497.93 229.94 1498.79 230.038C1499.64 230.136 1500.43 230.569 1500.97 231.242C1504.23 235.459 1507.5 239.936 1510.77 244.512C1511.09 245.004 1511.28 245.574 1511.31 246.162C1511.33 246.75 1511.2 247.334 1510.92 247.853C1510.64 248.372 1510.23 248.806 1509.73 249.11C1509.22 249.413 1508.65 249.575 1508.06 249.578L1507.83 249.709ZM1487.7 224.542C1487.26 224.54 1486.82 224.45 1486.42 224.276C1486.01 224.102 1485.65 223.848 1485.34 223.529C1481.75 219.77 1477.92 216.044 1473.94 212.482C1473.29 211.896 1472.9 211.079 1472.86 210.208C1472.82 209.338 1473.12 208.486 1473.71 207.84C1474.29 207.195 1475.11 206.808 1475.98 206.765C1476.85 206.722 1477.7 207.027 1478.35 207.612C1482.43 211.305 1486.39 215.162 1490.08 219.018C1490.52 219.483 1490.82 220.067 1490.93 220.699C1491.05 221.33 1490.97 221.981 1490.72 222.57C1490.46 223.159 1490.04 223.66 1489.5 224.011C1488.97 224.361 1488.34 224.546 1487.7 224.542ZM1463.8 202.905C1463.07 202.898 1462.36 202.658 1461.78 202.219C1457.69 198.95 1453.38 195.682 1449 192.74C1448.6 192.518 1448.26 192.215 1447.98 191.851C1447.71 191.488 1447.52 191.072 1447.41 190.629C1447.31 190.186 1447.3 189.727 1447.39 189.28C1447.47 188.834 1447.65 188.41 1447.91 188.036C1448.16 187.662 1448.5 187.345 1448.88 187.107C1449.27 186.869 1449.7 186.714 1450.15 186.652C1450.6 186.591 1451.06 186.623 1451.5 186.749C1451.94 186.874 1452.34 187.089 1452.69 187.38C1457.23 190.648 1461.65 193.917 1465.76 197.185C1466.44 197.72 1466.88 198.501 1466.99 199.359C1467.09 200.216 1466.85 201.08 1466.32 201.761C1466.02 202.112 1465.65 202.395 1465.23 202.592C1464.82 202.789 1464.36 202.896 1463.9 202.905H1463.8ZM1437.33 184.536C1436.73 184.532 1436.14 184.363 1435.63 184.046C1431.15 181.333 1426.51 178.653 1421.8 176.104C1421.1 175.665 1420.59 174.975 1420.38 174.175C1420.17 173.375 1420.26 172.524 1420.65 171.793C1421.04 171.063 1421.7 170.508 1422.48 170.24C1423.26 169.973 1424.12 170.012 1424.88 170.351C1429.71 172.966 1434.49 175.679 1439.03 178.49C1439.63 178.863 1440.1 179.422 1440.35 180.083C1440.61 180.744 1440.65 181.47 1440.45 182.153C1440.26 182.835 1439.85 183.437 1439.29 183.867C1438.73 184.297 1438.04 184.532 1437.33 184.536ZM1408.96 169.207C1408.47 169.205 1407.99 169.093 1407.55 168.881C1402.78 166.625 1397.75 164.436 1392.98 162.344C1392.58 162.178 1392.22 161.937 1391.92 161.632C1391.61 161.327 1391.37 160.966 1391.21 160.568C1391.04 160.171 1390.96 159.745 1390.96 159.315C1390.96 158.885 1391.05 158.459 1391.21 158.062C1391.38 157.665 1391.62 157.304 1391.92 157.001C1392.23 156.697 1392.59 156.457 1392.99 156.293C1393.38 156.129 1393.81 156.045 1394.24 156.046C1394.67 156.046 1395.1 156.132 1395.49 156.297C1400.49 158.389 1405.49 160.644 1410.36 162.834C1411.03 163.156 1411.56 163.693 1411.88 164.358C1412.21 165.023 1412.29 165.777 1412.13 166.497C1411.96 167.217 1411.56 167.861 1410.99 168.323C1410.41 168.786 1409.7 169.04 1408.96 169.044V169.207ZM1078.85 161.102C1078.06 161.116 1077.3 160.849 1076.7 160.35C1076.1 159.85 1075.69 159.151 1075.56 158.379C1075.43 157.608 1075.58 156.815 1075.99 156.145C1076.39 155.475 1077.02 154.972 1077.77 154.728C1082.87 152.898 1088.03 151.166 1093.13 149.531C1093.55 149.366 1093.99 149.289 1094.44 149.303C1094.89 149.317 1095.33 149.423 1095.73 149.614C1096.14 149.805 1096.5 150.078 1096.79 150.414C1097.09 150.751 1097.31 151.144 1097.45 151.571C1097.58 151.997 1097.63 152.447 1097.59 152.892C1097.54 153.337 1097.41 153.769 1097.19 154.16C1096.97 154.551 1096.68 154.893 1096.32 155.165C1095.97 155.437 1095.56 155.633 1095.12 155.741C1090.12 157.343 1085.02 159.01 1079.96 160.906C1079.65 161.018 1079.33 161.084 1079.01 161.102H1078.85ZM1379.28 156.885C1378.9 156.888 1378.52 156.81 1378.17 156.657C1373.27 154.859 1368.17 153.127 1363.04 151.493C1362.6 151.394 1362.18 151.205 1361.81 150.936C1361.45 150.668 1361.14 150.327 1360.92 149.934C1360.69 149.542 1360.55 149.107 1360.5 148.656C1360.45 148.206 1360.49 147.75 1360.63 147.318C1360.77 146.886 1360.99 146.487 1361.29 146.146C1361.59 145.806 1361.96 145.531 1362.37 145.34C1362.78 145.148 1363.22 145.044 1363.68 145.035C1364.13 145.025 1364.58 145.109 1365 145.282C1370.23 146.949 1375.42 148.714 1380.43 150.545C1381.24 150.808 1381.92 151.38 1382.32 152.137C1382.71 152.895 1382.8 153.778 1382.55 154.598C1382.33 155.286 1381.9 155.884 1381.31 156.298C1380.71 156.712 1380 156.918 1379.28 156.885ZM1109.7 151.329C1109.27 151.389 1108.83 151.364 1108.42 151.255C1108 151.147 1107.6 150.956 1107.26 150.695C1106.91 150.434 1106.62 150.108 1106.4 149.734C1106.18 149.361 1106.03 148.947 1105.97 148.518C1105.91 148.089 1105.94 147.652 1106.05 147.233C1106.16 146.813 1106.35 146.419 1106.61 146.073C1106.87 145.727 1107.2 145.436 1107.57 145.216C1107.94 144.996 1108.36 144.852 1108.79 144.792C1113.92 143.321 1119.21 141.916 1124.47 140.576C1125.3 140.405 1126.16 140.561 1126.88 141.011C1127.59 141.462 1128.11 142.172 1128.31 142.992C1128.51 143.812 1128.39 144.679 1127.97 145.411C1127.54 146.142 1126.85 146.682 1126.04 146.917C1120.85 148.224 1115.65 149.63 1110.58 151.068C1110.31 151.156 1110.02 151.2 1109.73 151.198L1109.7 151.329ZM1348.59 147.08C1348.31 147.114 1348.02 147.114 1347.74 147.08C1342.68 145.707 1337.48 144.4 1332.22 143.191C1331.35 143 1330.59 142.473 1330.12 141.725C1329.64 140.977 1329.48 140.07 1329.67 139.203C1329.86 138.336 1330.38 137.581 1331.13 137.103C1331.88 136.625 1332.79 136.463 1333.65 136.654C1339.01 137.896 1344.31 139.203 1349.44 140.609C1350.31 140.721 1351.09 141.174 1351.63 141.866C1352.16 142.559 1352.4 143.435 1352.28 144.302C1352.17 145.169 1351.72 145.955 1351.03 146.489C1350.33 147.022 1349.46 147.258 1348.59 147.145V147.08ZM1141.01 143.354C1140.15 143.445 1139.28 143.188 1138.6 142.639C1137.92 142.091 1137.49 141.296 1137.4 140.429C1137.31 139.562 1137.57 138.695 1138.12 138.017C1138.66 137.34 1139.46 136.908 1140.33 136.817C1145.59 135.673 1150.95 134.627 1156.21 133.549C1156.64 133.472 1157.08 133.48 1157.51 133.572C1157.93 133.665 1158.34 133.841 1158.69 134.09C1159.05 134.339 1159.36 134.656 1159.59 135.023C1159.83 135.39 1159.99 135.8 1160.07 136.229C1160.14 136.658 1160.14 137.098 1160.04 137.524C1159.95 137.951 1159.77 138.354 1159.53 138.712C1159.28 139.07 1158.96 139.376 1158.59 139.612C1158.23 139.847 1157.82 140.008 1157.39 140.086C1152.19 141.034 1146.9 142.079 1141.7 143.354H1141.01ZM1317.18 139.824H1316.56C1311.43 138.844 1306.1 137.961 1300.77 137.209C1300.35 137.146 1299.94 136.998 1299.57 136.777C1299.2 136.555 1298.88 136.262 1298.63 135.916C1298.37 135.57 1298.19 135.177 1298.09 134.759C1297.98 134.342 1297.96 133.908 1298.03 133.483C1298.16 132.631 1298.62 131.865 1299.31 131.35C1300 130.836 1300.87 130.616 1301.72 130.738C1307.15 131.522 1312.54 132.405 1317.77 133.385C1318.64 133.463 1319.44 133.883 1319.99 134.551C1320.55 135.219 1320.82 136.081 1320.74 136.948C1320.67 137.815 1320.25 138.615 1319.58 139.173C1318.91 139.731 1318.05 140 1317.18 139.922V139.824ZM1172.72 137.602C1171.85 137.667 1170.99 137.385 1170.33 136.818C1169.67 136.251 1169.27 135.445 1169.2 134.578C1169.14 133.711 1169.42 132.854 1169.99 132.195C1170.55 131.536 1171.36 131.13 1172.23 131.065C1177.59 130.28 1183.01 129.594 1188.34 129.006C1188.77 128.958 1189.2 128.996 1189.62 129.117C1190.03 129.237 1190.42 129.439 1190.76 129.709C1191.09 129.979 1191.37 130.313 1191.58 130.691C1191.79 131.07 1191.92 131.485 1191.97 131.915C1192.01 132.344 1191.98 132.778 1191.86 133.193C1191.74 133.607 1191.53 133.994 1191.26 134.331C1190.99 134.668 1190.66 134.948 1190.28 135.156C1189.9 135.364 1189.49 135.495 1189.06 135.543C1183.8 136.131 1178.47 136.817 1173.17 137.602H1172.72ZM1285.22 135.183H1284.89C1279.66 134.627 1274.3 134.17 1268.94 133.81C1268.51 133.781 1268.09 133.668 1267.7 133.476C1267.32 133.284 1266.97 133.018 1266.69 132.693C1266.41 132.368 1266.19 131.991 1266.06 131.582C1265.92 131.174 1265.87 130.742 1265.9 130.313C1265.93 129.883 1266.04 129.464 1266.23 129.078C1266.43 128.693 1266.69 128.349 1267.02 128.066C1267.34 127.784 1267.72 127.568 1268.13 127.432C1268.54 127.296 1268.97 127.242 1269.4 127.273C1274.85 127.666 1280.28 128.123 1285.58 128.712C1286 128.756 1286.42 128.885 1286.79 129.09C1287.17 129.295 1287.5 129.572 1287.78 129.906C1288.05 130.24 1288.25 130.624 1288.37 131.036C1288.49 131.448 1288.53 131.88 1288.48 132.307C1288.39 133.104 1288 133.838 1287.4 134.368C1286.8 134.899 1286.02 135.189 1285.22 135.183ZM1204.71 134.006C1203.89 134.009 1203.1 133.701 1202.49 133.143C1201.88 132.586 1201.51 131.82 1201.45 130.999C1201.41 130.57 1201.46 130.138 1201.59 129.727C1201.72 129.317 1201.94 128.937 1202.21 128.609C1202.49 128.281 1202.84 128.011 1203.22 127.816C1203.6 127.62 1204.02 127.502 1204.45 127.469C1209.88 127.077 1215.3 126.75 1220.79 126.522C1221.66 126.522 1222.49 126.866 1223.11 127.479C1223.72 128.092 1224.06 128.923 1224.06 129.79C1224.06 130.657 1223.72 131.488 1223.11 132.101C1222.49 132.714 1221.66 133.059 1220.79 133.059C1215.53 133.287 1210.14 133.614 1204.81 134.006H1204.71ZM1253.05 132.928C1248.38 132.928 1243.67 132.699 1239.07 132.699H1237.04C1236.17 132.699 1235.34 132.355 1234.73 131.742C1234.12 131.129 1233.77 130.297 1233.77 129.431C1233.77 128.564 1234.12 127.732 1234.73 127.119C1235.34 126.506 1236.17 126.162 1237.04 126.162H1239.1C1243.77 126.162 1248.54 126.162 1253.28 126.391C1254.15 126.391 1254.98 126.735 1255.59 127.348C1256.21 127.961 1256.55 128.792 1256.55 129.659C1256.55 130.526 1256.21 131.358 1255.59 131.97C1254.98 132.583 1254.15 132.928 1253.28 132.928H1253.05Z" fill="#E0E0E0"/>
<path d="M1056.07 169.96C1055.32 169.951 1054.59 169.684 1054.01 169.205C1053.44 168.725 1053.04 168.062 1052.9 167.326C1052.75 166.59 1052.86 165.827 1053.21 165.163C1053.57 164.5 1054.13 163.978 1054.82 163.684L1062.44 160.416C1062.84 160.257 1063.27 160.18 1063.7 160.188C1064.13 160.196 1064.56 160.289 1064.95 160.463C1065.35 160.636 1065.7 160.885 1066 161.197C1066.3 161.509 1066.53 161.876 1066.69 162.279C1066.85 162.68 1066.92 163.108 1066.92 163.54C1066.91 163.971 1066.81 164.396 1066.64 164.791C1066.47 165.186 1066.22 165.543 1065.91 165.841C1065.59 166.139 1065.23 166.372 1064.82 166.528L1057.31 169.567C1056.92 169.775 1056.5 169.909 1056.07 169.96Z" fill="#E0E0E0"/>
<path d="M328.282 467.91L478.598 394.239L370.216 497.326L328.282 467.91Z" fill="#C2410C"/>
<path d="M478.598 394.239L312.855 448.757L270.986 419.341L478.598 394.239Z" fill="#C2410C"/>
<path d="M312.855 448.757L319.425 490.854L328.282 467.91L478.598 394.239L312.855 448.757Z" fill="#C2410C"/>
<path opacity="0.25" d="M312.855 448.757L319.425 490.854L328.282 467.91L478.598 394.239L312.855 448.757Z" fill="black"/>
<path d="M319.425 490.855L342.271 477.715L328.282 467.91L319.425 490.855Z" fill="#C2410C"/>
<path opacity="0.25" d="M328.282 467.91L342.271 477.715L338.61 479.807L328.282 467.91Z" fill="black"/>
<path d="M339.591 909.051C339.212 909.051 338.836 908.985 338.48 908.855C333.185 906.96 328.021 904.998 323.085 903.07C322.279 902.749 321.633 902.122 321.29 901.325C320.947 900.528 320.934 899.627 321.255 898.821C321.576 898.015 322.204 897.369 323 897.026C323.797 896.683 324.698 896.67 325.504 896.991C330.341 898.887 335.309 900.815 340.702 902.711C341.424 902.973 342.031 903.481 342.416 904.146C342.801 904.811 342.939 905.59 342.806 906.347C342.674 907.104 342.279 907.79 341.691 908.284C341.103 908.779 340.359 909.051 339.591 909.051ZM309.227 896.991C308.778 896.994 308.333 896.905 307.92 896.729C302.821 894.474 297.82 892.154 292.983 889.8C292.203 889.419 291.606 888.743 291.324 887.922C291.042 887.1 291.098 886.201 291.48 885.421C291.861 884.64 292.537 884.044 293.358 883.762C294.179 883.48 295.079 883.536 295.859 883.917C300.598 886.238 305.665 888.526 310.567 890.748C311.245 891.057 311.797 891.588 312.132 892.254C312.467 892.92 312.564 893.68 312.408 894.408C312.251 895.137 311.851 895.79 311.272 896.26C310.694 896.73 309.972 896.987 309.227 896.991ZM279.811 882.61C279.264 882.612 278.724 882.478 278.242 882.218C273.372 879.537 268.437 876.759 263.959 873.916C263.367 873.419 262.971 872.728 262.84 871.966C262.708 871.205 262.852 870.421 263.243 869.755C263.635 869.089 264.251 868.583 264.98 868.328C265.709 868.072 266.506 868.083 267.228 868.359C271.738 871.137 276.445 873.85 281.217 876.465C281.858 876.811 282.365 877.362 282.658 878.03C282.951 878.697 283.011 879.444 282.831 880.15C282.651 880.856 282.24 881.482 281.663 881.928C281.086 882.373 280.377 882.613 279.648 882.61H279.811ZM252.029 865.45C251.363 865.449 250.713 865.243 250.166 864.862C245.591 861.594 241.146 858.325 236.897 855.057C236.199 854.498 235.752 853.684 235.654 852.795C235.555 851.907 235.815 851.015 236.374 850.318C236.933 849.62 237.746 849.173 238.635 849.075C239.524 848.976 240.415 849.235 241.113 849.795C245.231 853.063 249.578 856.331 254.187 859.404C254.756 859.801 255.185 860.37 255.409 861.028C255.634 861.686 255.643 862.398 255.435 863.061C255.227 863.724 254.814 864.304 254.254 864.716C253.695 865.128 253.018 865.351 252.324 865.352L252.029 865.45ZM226.503 845.121C225.693 845.119 224.913 844.816 224.313 844.271C220.195 840.512 216.24 836.623 212.514 832.635C211.991 831.996 211.73 831.181 211.783 830.357C211.836 829.532 212.199 828.759 212.8 828.191C213.401 827.624 214.194 827.305 215.02 827.299C215.846 827.292 216.644 827.599 217.253 828.158C220.881 832.014 224.738 835.806 228.725 839.434C229.215 839.879 229.558 840.462 229.709 841.106C229.86 841.751 229.812 842.426 229.571 843.042C229.331 843.658 228.908 844.187 228.36 844.558C227.812 844.93 227.165 845.126 226.503 845.121ZM204.147 821.392C203.656 821.39 203.172 821.277 202.73 821.062C202.289 820.847 201.902 820.535 201.597 820.15C198.133 815.868 194.832 811.39 191.792 806.815C191.552 806.458 191.384 806.058 191.298 805.637C191.212 805.216 191.21 804.782 191.292 804.36C191.374 803.938 191.539 803.537 191.776 803.178C192.013 802.82 192.318 802.512 192.675 802.271C193.031 802.031 193.431 801.863 193.852 801.778C194.273 801.692 194.707 801.69 195.129 801.772C195.551 801.854 195.952 802.018 196.311 802.255C196.669 802.492 196.977 802.798 197.218 803.154C200.192 807.566 203.428 811.913 206.762 816.228C207.3 816.901 207.55 817.76 207.458 818.617C207.366 819.473 206.94 820.26 206.271 820.804C205.688 821.211 204.988 821.418 204.278 821.392H204.147ZM185.844 794.395C185.264 794.394 184.696 794.239 184.196 793.946C183.697 793.653 183.284 793.232 183 792.728C180.32 787.956 177.771 782.922 175.45 777.954C175.27 777.564 175.168 777.141 175.151 776.712C175.134 776.282 175.202 775.853 175.35 775.449C175.499 775.045 175.726 774.675 176.018 774.359C176.31 774.043 176.661 773.788 177.051 773.607C177.442 773.427 177.864 773.325 178.294 773.308C178.724 773.291 179.153 773.359 179.557 773.508C180.372 773.808 181.034 774.42 181.398 775.209C183.621 780.079 186.105 785.014 188.687 789.492C188.902 789.867 189.04 790.281 189.094 790.709C189.148 791.138 189.116 791.573 189 791.99C188.885 792.406 188.688 792.796 188.421 793.136C188.154 793.475 187.822 793.759 187.445 793.97C186.993 794.22 186.49 794.365 185.974 794.395H185.844ZM172.312 764.815C171.644 764.817 170.992 764.615 170.443 764.235C169.893 763.855 169.474 763.316 169.24 762.691C167.344 757.592 165.612 752.297 164.076 746.937C163.931 746.517 163.874 746.073 163.907 745.63C163.939 745.188 164.062 744.757 164.267 744.363C164.472 743.969 164.755 743.622 165.099 743.341C165.442 743.06 165.839 742.853 166.266 742.73C166.693 742.608 167.139 742.574 167.58 742.63C168.02 742.686 168.444 742.832 168.826 743.057C169.208 743.282 169.541 743.583 169.803 743.941C170.065 744.299 170.252 744.707 170.351 745.139C171.855 750.336 173.62 755.467 175.352 760.435C175.648 761.246 175.611 762.141 175.25 762.925C174.889 763.708 174.232 764.318 173.423 764.619C173.067 764.748 172.691 764.815 172.312 764.815ZM163.193 733.471C162.433 733.488 161.691 733.239 161.094 732.768C160.498 732.297 160.084 731.632 159.925 730.889C158.781 725.627 157.735 720.168 156.885 714.547C156.753 713.693 156.965 712.822 157.473 712.124C157.981 711.426 158.745 710.957 159.598 710.82C160.023 710.751 160.458 710.765 160.877 710.864C161.296 710.963 161.692 711.143 162.041 711.395C162.391 711.647 162.687 711.966 162.912 712.333C163.138 712.7 163.289 713.108 163.357 713.533C164.174 718.926 165.187 724.254 166.298 729.418C166.483 730.263 166.326 731.147 165.86 731.876C165.394 732.605 164.659 733.12 163.814 733.307C163.612 733.364 163.403 733.397 163.193 733.405V733.471ZM158.094 701.211C157.281 701.215 156.496 700.916 155.892 700.372C155.287 699.828 154.907 699.079 154.826 698.27C154.27 693.008 153.813 687.484 153.486 681.928C153.441 681.066 153.739 680.221 154.315 679.578C154.89 678.935 155.697 678.546 156.558 678.496C156.988 678.469 157.418 678.528 157.825 678.668C158.232 678.808 158.607 679.027 158.929 679.312C159.25 679.598 159.513 679.944 159.701 680.331C159.888 680.718 159.998 681.138 160.023 681.568C160.35 687.092 160.775 692.517 161.33 697.714C161.413 698.571 161.153 699.426 160.608 700.094C160.064 700.761 159.278 701.186 158.421 701.277L158.094 701.211ZM156.395 668.527C155.528 668.527 154.697 668.183 154.084 667.57C153.471 666.957 153.126 666.125 153.126 665.258C153.126 659.767 153.551 654.178 154.107 648.687C154.148 648.257 154.274 647.84 154.477 647.459C154.68 647.077 154.957 646.74 155.291 646.467C155.625 646.193 156.011 645.989 156.425 645.865C156.838 645.741 157.273 645.701 157.702 645.746C158.129 645.791 158.544 645.919 158.921 646.124C159.298 646.329 159.632 646.607 159.902 646.941C160.172 647.275 160.374 647.658 160.495 648.07C160.617 648.482 160.656 648.914 160.611 649.341C160.088 654.669 159.761 660.062 159.663 665.389C159.63 666.233 159.27 667.031 158.661 667.616C158.052 668.201 157.24 668.528 156.395 668.527ZM159.663 636.039H159.075C158.227 635.88 157.476 635.392 156.986 634.682C156.497 633.971 156.307 633.096 156.46 632.247C157.441 626.822 158.683 621.396 160.088 615.905C160.202 615.491 160.396 615.103 160.659 614.763C160.923 614.424 161.251 614.14 161.624 613.928C161.997 613.715 162.409 613.578 162.835 613.525C163.262 613.472 163.694 613.503 164.108 613.617C164.938 613.847 165.644 614.394 166.072 615.141C166.5 615.887 166.617 616.773 166.396 617.605C165.024 622.769 163.847 628.064 162.866 633.293C162.743 634.055 162.353 634.749 161.767 635.252C161.181 635.754 160.436 636.033 159.663 636.039ZM168.096 604.662C167.728 604.657 167.363 604.591 167.017 604.465C166.611 604.323 166.237 604.101 165.917 603.813C165.596 603.525 165.336 603.177 165.151 602.788C164.966 602.399 164.859 601.978 164.837 601.548C164.815 601.118 164.879 600.687 165.024 600.282C166.854 595.118 168.913 589.921 171.168 584.855C171.326 584.438 171.568 584.057 171.878 583.737C172.189 583.416 172.562 583.163 172.974 582.992C173.386 582.821 173.829 582.736 174.275 582.743C174.721 582.75 175.161 582.848 175.568 583.031C175.975 583.215 176.34 583.479 176.64 583.809C176.941 584.139 177.171 584.526 177.316 584.948C177.461 585.37 177.518 585.817 177.484 586.262C177.45 586.707 177.325 587.14 177.117 587.535C174.96 592.405 172.933 597.34 171.168 602.472C170.945 603.11 170.53 603.663 169.98 604.055C169.43 604.447 168.772 604.659 168.096 604.662ZM181.366 574.821C180.8 574.817 180.246 574.666 179.756 574.383C179.266 574.101 178.858 573.696 178.572 573.209C178.285 572.721 178.13 572.168 178.121 571.603C178.113 571.037 178.251 570.479 178.522 569.983C181.137 565.146 184.013 560.178 187.02 555.733C187.522 555.079 188.251 554.639 189.064 554.5C189.876 554.361 190.71 554.535 191.4 554.985C192.09 555.435 192.585 556.13 192.785 556.929C192.985 557.728 192.875 558.573 192.478 559.296C189.57 563.773 186.791 568.415 184.242 573.121C183.939 573.607 183.514 574.004 183.009 574.274C182.504 574.543 181.938 574.675 181.366 574.657V574.821ZM199.375 547.3C198.765 547.299 198.168 547.127 197.651 546.804C197.134 546.481 196.717 546.019 196.449 545.472C196.18 544.924 196.07 544.313 196.131 543.706C196.191 543.099 196.421 542.521 196.793 542.038C200.061 537.659 203.755 533.377 207.448 529.324C207.738 529.006 208.087 528.749 208.476 528.566C208.866 528.384 209.287 528.28 209.716 528.26C210.146 528.24 210.575 528.305 210.979 528.451C211.384 528.598 211.755 528.822 212.073 529.112C212.39 529.401 212.648 529.751 212.83 530.14C213.013 530.529 213.117 530.951 213.137 531.38C213.157 531.81 213.092 532.239 212.945 532.643C212.799 533.047 212.575 533.419 212.285 533.736C208.723 537.659 205.225 541.809 201.957 546.026C201.652 546.421 201.261 546.742 200.814 546.963C200.366 547.184 199.874 547.299 199.375 547.3ZM221.372 523.179C220.717 523.177 220.078 522.978 219.538 522.609C218.997 522.239 218.58 521.716 218.341 521.107C218.101 520.497 218.05 519.83 218.194 519.192C218.339 518.553 218.671 517.972 219.149 517.525C223.169 513.734 227.418 510.106 231.732 506.706C232.41 506.172 233.271 505.927 234.128 506.025C234.985 506.123 235.769 506.556 236.308 507.229C236.578 507.566 236.778 507.952 236.898 508.366C237.018 508.78 237.054 509.214 237.006 509.643C236.957 510.071 236.824 510.485 236.615 510.862C236.405 511.239 236.123 511.571 235.785 511.838C231.602 515.106 227.516 518.636 223.594 522.297C223.276 522.596 222.9 522.828 222.49 522.98C222.081 523.131 221.645 523.199 221.208 523.179H221.372ZM246.996 502.948C246.24 503.028 245.479 502.842 244.845 502.422C244.212 502.002 243.744 501.374 243.523 500.646C243.303 499.918 243.343 499.136 243.637 498.435C243.93 497.733 244.46 497.156 245.133 496.803C249.709 493.763 254.481 490.887 259.318 488.207C259.694 487.992 260.108 487.854 260.537 487.799C260.966 487.745 261.402 487.775 261.819 487.889C262.236 488.003 262.627 488.198 262.969 488.463C263.311 488.728 263.598 489.057 263.812 489.433C264.027 489.808 264.165 490.222 264.22 490.652C264.274 491.081 264.244 491.516 264.13 491.934C264.016 492.351 263.821 492.742 263.557 493.084C263.292 493.426 262.962 493.712 262.587 493.927C257.913 496.509 253.271 499.32 248.859 502.261C248.28 502.711 247.566 502.953 246.833 502.948H246.996ZM275.366 486.998C274.621 486.994 273.899 486.736 273.321 486.267C272.742 485.797 272.342 485.144 272.185 484.415C272.029 483.687 272.126 482.927 272.461 482.261C272.796 481.595 273.348 481.064 274.026 480.755C279.027 478.5 284.191 476.375 289.388 474.512C290.196 474.246 291.076 474.305 291.841 474.677C292.606 475.049 293.196 475.704 293.486 476.504C293.775 477.305 293.741 478.186 293.391 478.961C293.041 479.737 292.402 480.345 291.61 480.657C286.577 482.487 281.576 484.514 276.706 486.704C276.285 486.895 275.829 486.996 275.366 486.998Z" fill="#E0E0E0"/>
</svg>
