<svg width="148" height="28" viewBox="0 0 148 28" fill="none" xmlns="http://www.w3.org/2000/svg">
<path d="M21.222 5.238H13.59V27H8.172V5.238H0.54V0.881998H21.222V5.238Z" fill="#0783DB"/>
<path d="M20.7563 24.39C20.7563 23.994 20.8283 23.622 20.9723 23.274C21.1283 22.914 21.3383 22.608 21.6023 22.356C21.8663 22.092 22.1723 21.888 22.5203 21.744C22.8803 21.588 23.2703 21.51 23.6903 21.51C24.0983 21.51 24.4823 21.588 24.8423 21.744C25.2023 21.888 25.5143 22.092 25.7783 22.356C26.0423 22.608 26.2463 22.914 26.3903 23.274C26.5463 23.622 26.6243 23.994 26.6243 24.39C26.6243 24.798 26.5463 25.176 26.3903 25.524C26.2463 25.872 26.0423 26.178 25.7783 26.442C25.5143 26.694 25.2023 26.892 24.8423 27.036C24.4823 27.18 24.0983 27.252 23.6903 27.252C23.2703 27.252 22.8803 27.18 22.5203 27.036C22.1723 26.892 21.8663 26.694 21.6023 26.442C21.3383 26.178 21.1283 25.872 20.9723 25.524C20.8283 25.176 20.7563 24.798 20.7563 24.39ZM50.0063 24.39C50.0063 23.994 50.0783 23.622 50.2223 23.274C50.3783 22.914 50.5883 22.608 50.8523 22.356C51.1163 22.092 51.4223 21.888 51.7703 21.744C52.1303 21.588 52.5203 21.51 52.9403 21.51C53.3483 21.51 53.7323 21.588 54.0923 21.744C54.4523 21.888 54.7643 22.092 55.0283 22.356C55.2923 22.608 55.4963 22.914 55.6403 23.274C55.7963 23.622 55.8743 23.994 55.8743 24.39C55.8743 24.798 55.7963 25.176 55.6403 25.524C55.4963 25.872 55.2923 26.178 55.0283 26.442C54.7643 26.694 54.4523 26.892 54.0923 27.036C53.7323 27.18 53.3483 27.252 52.9403 27.252C52.5203 27.252 52.1303 27.18 51.7703 27.036C51.4223 26.892 51.1163 26.694 50.8523 26.442C50.5883 26.178 50.3783 25.872 50.2223 25.524C50.0783 25.176 50.0063 24.798 50.0063 24.39ZM83.8617 24.39C83.8617 23.994 83.9337 23.622 84.0777 23.274C84.2337 22.914 84.4437 22.608 84.7077 22.356C84.9717 22.092 85.2777 21.888 85.6257 21.744C85.9857 21.588 86.3757 21.51 86.7957 21.51C87.2037 21.51 87.5877 21.588 87.9477 21.744C88.3077 21.888 88.6197 22.092 88.8837 22.356C89.1477 22.608 89.3517 22.914 89.4957 23.274C89.6517 23.622 89.7297 23.994 89.7297 24.39C89.7297 24.798 89.6517 25.176 89.4957 25.524C89.3517 25.872 89.1477 26.178 88.8837 26.442C88.6197 26.694 88.3077 26.892 87.9477 27.036C87.5877 27.18 87.2037 27.252 86.7957 27.252C86.3757 27.252 85.9857 27.18 85.6257 27.036C85.2777 26.892 84.9717 26.694 84.7077 26.442C84.4437 26.178 84.2337 25.872 84.0777 25.524C83.9337 25.176 83.8617 24.798 83.8617 24.39ZM115.538 24.39C115.538 23.994 115.61 23.622 115.754 23.274C115.91 22.914 116.12 22.608 116.384 22.356C116.648 22.092 116.954 21.888 117.302 21.744C117.662 21.588 118.052 21.51 118.472 21.51C118.88 21.51 119.264 21.588 119.624 21.744C119.984 21.888 120.296 22.092 120.56 22.356C120.824 22.608 121.028 22.914 121.172 23.274C121.328 23.622 121.406 23.994 121.406 24.39C121.406 24.798 121.328 25.176 121.172 25.524C121.028 25.872 120.824 26.178 120.56 26.442C120.296 26.694 119.984 26.892 119.624 27.036C119.264 27.18 118.88 27.252 118.472 27.252C118.052 27.252 117.662 27.18 117.302 27.036C116.954 26.892 116.648 26.694 116.384 26.442C116.12 26.178 115.91 25.872 115.754 25.524C115.61 25.176 115.538 24.798 115.538 24.39Z" fill="black"/>
<path d="M36.1564 5.112V11.826H44.8684V15.912H36.1564V22.77H47.3524V27H30.7204V0.881998H47.3524V5.112H36.1564Z" fill="#61B24F"/>
<path d="M73.7584 17.082L70.9324 9.09C70.7644 8.67 70.5844 8.178 70.3924 7.614C70.2124 7.05 70.0384 6.438 69.8704 5.778C69.7024 6.45 69.5224 7.074 69.3304 7.65C69.1504 8.214 68.9764 8.706 68.8084 9.126L66.0004 17.082H73.7584ZM82.8304 27H78.6364C78.1684 27 77.7844 26.892 77.4844 26.676C77.1964 26.448 76.9804 26.16 76.8364 25.812L75.0724 20.826H64.6684L62.9044 25.812C62.7844 26.112 62.5744 26.388 62.2744 26.64C61.9744 26.88 61.5964 27 61.1404 27H56.9104L67.1164 0.881998H72.6424L82.8304 27Z" fill="#C55A0E"/>
<path d="M110.977 20.574C111.277 20.574 111.529 20.682 111.733 20.898L113.875 23.184C112.819 24.528 111.505 25.548 109.933 26.244C108.373 26.94 106.513 27.288 104.353 27.288C102.397 27.288 100.639 26.958 99.079 26.298C97.519 25.626 96.193 24.696 95.101 23.508C94.009 22.32 93.169 20.91 92.581 19.278C91.993 17.646 91.699 15.864 91.699 13.932C91.699 12.636 91.837 11.406 92.113 10.242C92.401 9.066 92.815 7.986 93.355 7.002C93.895 6.018 94.543 5.13 95.299 4.338C96.067 3.546 96.931 2.874 97.891 2.322C98.851 1.758 99.895 1.332 101.023 1.044C102.163 0.743998 103.375 0.593998 104.659 0.593998C105.619 0.593998 106.525 0.677998 107.377 0.845999C108.241 1.014 109.045 1.248 109.789 1.548C110.533 1.848 111.217 2.214 111.841 2.646C112.477 3.066 113.047 3.528 113.551 4.032L111.733 6.516C111.625 6.672 111.487 6.81 111.319 6.93C111.151 7.05 110.923 7.11 110.635 7.11C110.347 7.11 110.053 7.008 109.753 6.804C109.465 6.6 109.105 6.372 108.673 6.12C108.253 5.868 107.719 5.64 107.071 5.436C106.435 5.232 105.625 5.13 104.641 5.13C103.549 5.13 102.547 5.328 101.635 5.724C100.723 6.12 99.937 6.696 99.277 7.452C98.629 8.196 98.125 9.114 97.765 10.206C97.405 11.298 97.225 12.54 97.225 13.932C97.225 15.336 97.417 16.59 97.801 17.694C98.197 18.786 98.731 19.71 99.403 20.466C100.087 21.222 100.879 21.798 101.779 22.194C102.691 22.578 103.663 22.77 104.695 22.77C105.307 22.77 105.859 22.74 106.351 22.68C106.855 22.62 107.317 22.518 107.737 22.374C108.169 22.23 108.571 22.044 108.943 21.816C109.327 21.588 109.711 21.3 110.095 20.952C110.227 20.844 110.365 20.754 110.509 20.682C110.653 20.61 110.809 20.574 110.977 20.574Z" fill="#B7B9E4"/>
<path d="M147.876 0.881998V27H142.44V15.75H130.938V27H125.502V0.881998H130.938V11.97H142.44V0.881998H147.876Z" fill="#C2C0C1"/>
</svg>
